<svg width="34" height="32" fill="none" xmlns="http://www.w3.org/2000/svg"><path d="M11.704 28.536a1.079 1.079 0 0 1-.484-.126 1.016 1.016 0 0 1-.366-.327L3.601 17.26a.936.936 0 0 1-.018-1.125c.078-.111.18-.205.298-.278a1.07 1.07 0 0 1 .807-.128c.137.032.265.09.378.17.112.081.206.182.276.299l6.362 9.593L28.471 3.365c.16-.214.401-.359.674-.403.272-.044.551.016.776.167a.984.984 0 0 1 .425.64.95.95 0 0 1-.176.738L12.554 28.122a1.023 1.023 0 0 1-.372.305 1.082 1.082 0 0 1-.478.109Z" fill="#000"/></svg>