<svg width="31" height="31" fill="none" xmlns="http://www.w3.org/2000/svg"><path d="M28.89 21.966c-1.24-1.273-4.761-3.657-7.07-3.657-.534 0-1 .119-1.383.365-1.128.721-2.028 1.281-2.46 1.281-.238 0-.493-.212-1.053-.696l-.093-.085c-1.553-1.349-1.884-1.697-2.486-2.325l-.153-.16c-.11-.111-.204-.213-.297-.306-.526-.543-.908-.934-2.258-2.461l-.059-.068c-.645-.73-1.07-1.205-1.095-1.553-.025-.34.272-.891 1.027-1.918.917-1.239.95-2.766.11-4.54-.67-1.4-1.765-2.74-2.732-3.92l-.085-.102C7.972.802 7.004.293 5.926.293c-1.196 0-2.189.645-2.715.985-.043.025-.085.059-.127.084-1.18.747-2.037 1.774-2.36 2.818-.483 1.57-.806 3.606 1.511 7.84 2.003 3.667 3.819 6.128 6.704 9.09 2.716 2.783 3.92 3.682 6.619 5.634 3.004 2.172 5.89 3.42 7.909 3.42 1.875 0 3.352 0 5.457-2.537 2.206-2.665 1.29-4.294-.034-5.66Zm-.976 4.744c-1.698 2.054-2.674 2.054-4.439 2.054-1.722 0-4.395-1.188-7.145-3.166-2.63-1.9-3.801-2.774-6.44-5.482-2.793-2.86-4.55-5.244-6.484-8.782-2.045-3.743-1.816-5.38-1.4-6.73.22-.721.882-1.493 1.782-2.054.042-.025.085-.059.136-.084.45-.289 1.196-.773 2.01-.773.68 0 1.282.34 1.86 1.044l.084.102c2.164 2.648 3.853 4.99 2.58 6.72-.9 1.214-1.375 2.038-1.298 2.886.067.823.62 1.443 1.45 2.376l.06.068c1.366 1.545 1.757 1.952 2.3 2.503.093.094.186.196.297.306l.153.161c.627.654.976 1.01 2.57 2.41l.094.085c.679.594 1.18 1.027 1.91 1.027.755 0 1.586-.475 3.165-1.485.161-.102.39-.161.679-.161 1.841 0 5.015 2.104 6.127 3.25 1.018 1.035 1.527 1.816-.051 3.725Z" fill="#fff"/></svg>