<svg width="40" height="40" viewBox="0 0 40 40" fill="none" xmlns="http://www.w3.org/2000/svg">
<path d="M19.8352 0C8.87814 0 0 8.87814 0 19.8352C0 30.7922 8.87814 39.6703 19.8352 39.6703C30.7922 39.6703 39.6703 30.7922 39.6703 19.8352C39.6703 8.87814 30.7922 0 19.8352 0ZM19.8352 38.0206C9.81268 38.0206 1.64975 29.8672 1.64975 19.8352C1.64975 9.81268 9.80315 1.64975 19.8352 1.64975C29.8576 1.64975 38.0206 9.80315 38.0206 19.8352C38.0206 29.8576 29.8576 38.0206 19.8352 38.0206Z" fill="white"/>
<path d="M19.8354 19.8352H10.6807V21.4849H21.4851V7.62891H19.8354V19.8352Z" fill="white"/>
</svg>
