<svg width="28" height="29" fill="none" xmlns="http://www.w3.org/2000/svg"><g clip-path="url(#a)"><path d="M-1.875 1.5a1 1 0 0 1 1-1h3a1 1 0 0 1 .97.758l.81 3.242h23.22a1 1 0 0 1 .97 1.242l-3 12a1 1 0 0 1-.97.758h-18a1 1 0 0 1-.97-.758L1.345 2.5h-2.22a1 1 0 0 1-1-1Zm6.28 5 2.5 10h16.44l2.5-10H4.405Zm3.72 16a2 2 0 1 0 0 4 2 2 0 0 0 0-4Zm-4 2a4 4 0 1 1 8 0 4 4 0 0 1-8 0Zm18-2a2 2 0 1 0 0 4 2 2 0 0 0 0-4Zm-4 2a4 4 0 1 1 8 0 4 4 0 0 1-8 0Z" fill="#fff"/></g><defs><clipPath id="a"><path fill="#fff" transform="translate(0 .5)" d="M0 0h28v28H0z"/></clipPath></defs></svg>