<svg width="106" height="23" fill="none" xmlns="http://www.w3.org/2000/svg"><path d="M.622.452h10.796v2.124H2.761v6.738h8.657v2.124H2.761V22H.622V.452Zm14.56 0h2.169V19.92h8.276V22H15.183V.452Zm21.065 5.2c2.451 0 4.483.889 6.094 2.666 1.465 1.621 2.197 3.54 2.197 5.757 0 2.227-.776 4.175-2.329 5.845-1.543 1.66-3.53 2.49-5.962 2.49-2.441 0-4.438-.83-5.991-2.49-1.543-1.67-2.315-3.618-2.315-5.845 0-2.207.733-4.12 2.198-5.742 1.611-1.787 3.647-2.68 6.108-2.68Zm0 2.007c-1.7 0-3.16.63-4.38 1.89-1.22 1.26-1.83 2.783-1.83 4.57a6.5 6.5 0 0 0 .834 3.223c.557.996 1.309 1.767 2.256 2.314a6.215 6.215 0 0 0 3.12.806 6.216 6.216 0 0 0 3.12-.806c.948-.547 1.7-1.318 2.256-2.314.557-.996.835-2.07.835-3.223 0-1.787-.615-3.31-1.846-4.57-1.22-1.26-2.675-1.89-4.365-1.89Zm9.961-1.596h2.11l4.877 11.572 5.113-11.573h.366l5.098 11.573 4.965-11.573h2.139L63.962 22h-.396l-5.068-11.411L53.386 22h-.381L46.208 6.062Zm40.503 10.649 1.728.908c-.566 1.113-1.22 2.012-1.962 2.695a7.901 7.901 0 0 1-2.505 1.568c-.928.351-1.978.527-3.15.527-2.597 0-4.629-.85-6.094-2.549-1.464-1.709-2.197-3.637-2.197-5.786 0-2.021.62-3.823 1.86-5.405 1.573-2.012 3.677-3.018 6.314-3.018 2.715 0 4.883 1.03 6.504 3.091 1.152 1.455 1.738 3.272 1.758 5.45H74.64c.039 1.855.63 3.378 1.772 4.57 1.143 1.181 2.554 1.772 4.234 1.772.81 0 1.596-.141 2.358-.425.771-.283 1.426-.659 1.963-1.128.537-.468 1.118-1.225 1.743-2.27Zm0-4.292c-.273-1.094-.674-1.968-1.201-2.622-.518-.654-1.206-1.182-2.066-1.582-.859-.4-1.762-.6-2.71-.6-1.562 0-2.905.502-4.028 1.508-.82.732-1.44 1.831-1.86 3.296H86.71Zm5.317-6.357h2.095v2.329c.625-.918 1.284-1.602 1.978-2.051.693-.46 1.416-.689 2.168-.689.566 0 1.171.181 1.816.542l-1.07 1.729c-.43-.186-.79-.278-1.083-.278-.684 0-1.343.283-1.978.85-.635.556-1.118 1.425-1.45 2.607-.254.908-.381 2.744-.381 5.507V22h-2.095V6.062Zm12.056 12.714c.498 0 .923.176 1.274.528.352.351.528.78.528 1.289 0 .498-.176.927-.528 1.289a1.734 1.734 0 0 1-1.274.527c-.498 0-.923-.176-1.274-.527a1.784 1.784 0 0 1-.528-1.29c0-.507.176-.937.528-1.288a1.734 1.734 0 0 1 1.274-.528Z" fill="#fff"/></svg>